<svg width="360" height="366" viewBox="0 0 360 366" fill="none" xmlns="http://www.w3.org/2000/svg">
<rect y="6" width="360" height="360" fill="#202124"/>
<path d="M224.503 298.81V280.665H214.998V298.81H224.503Z" stroke="black" stroke-width="1.72803" stroke-linecap="round" stroke-linejoin="round"/>
<path d="M178.41 240.998L104.43 208.332L75.2395 236.245L37.4526 219.559L178.833 91.577L215.254 107.659L216.144 298.462L177.446 281.375L178.41 240.998ZM179.164 207.873L180.834 135.711L128.63 185.56L179.164 207.873Z" fill="#A905A2"/>
<path d="M224.986 138.769V184.804H305.609V217.153H224.986V280.606H184.675V106.421H316.309V138.769H224.986Z" fill="#A905A2"/>
<path d="M220.528 294.489C220.528 293.308 220.701 292.198 220.701 291.033C220.701 290.142 220.545 289.095 220.912 288.269C221.179 287.668 221.047 286.853 221.047 286.195C221.047 285.631 221.365 284.583 220.778 284.477C219.737 284.287 218.703 283.994 217.677 283.766C216.801 283.572 217.5 284.593 217.581 285.158C217.766 286.451 217.936 287.554 217.936 288.883C217.936 290.131 217.936 291.379 217.936 292.627C217.936 293.651 217.936 294.675 217.936 295.699C217.936 296.79 217.871 296.909 218.973 296.909C219.664 296.909 220.355 296.909 221.047 296.909C221.731 296.909 221.392 294.458 221.392 293.798C221.392 291.142 220.701 288.476 220.701 285.83C220.701 284.829 220.701 283.827 220.701 282.825C220.701 282.486 220.701 282.147 220.701 281.808C220.701 281.548 220.642 282.45 220.874 282.566" stroke="black" stroke-width="5.18408" stroke-linecap="round" stroke-linejoin="round"/>
<path d="M219.146 286.195C219.146 285.258 219.318 284.36 219.318 283.43C219.318 282.928 219.189 283.658 219.011 283.949C218.354 285.024 216.099 284.698 214.998 284.64C214.687 284.623 214.307 284.054 214.307 283.776C214.307 283.222 214.941 282.904 215.344 282.605C216.414 281.809 217.633 281.525 218.714 280.924C219.483 280.497 220.088 279.923 220.787 279.379C221.511 278.816 221.055 280.026 220.96 280.329C220.752 280.997 220.595 281.721 220.519 282.413C220.299 284.391 219.726 286.295 219.146 288.182C218.967 288.764 218.9 289.305 218.282 289.305C216.612 289.305 216.257 287.593 215.382 286.579C215.024 286.164 214.826 285.65 214.826 286.675C214.826 288.351 214.957 290.091 214.653 291.744C214.561 292.245 214.126 294.306 214.518 294.797C214.751 295.088 215.251 296.184 215.517 296.218C216.094 296.29 216.713 296.781 217.331 296.918C218.134 297.097 218.909 297.427 219.75 297.427C220.131 297.427 220.659 297.553 220.874 297.178C221.001 296.956 221.379 296.447 221.392 296.218C221.453 295.119 221.863 293.855 222.122 292.761C222.637 290.585 222.775 288.51 222.775 286.272C222.775 284.593 222.429 282.907 222.429 281.27C222.429 280.868 222.029 280.232 221.901 280.934C221.741 281.812 221.494 282.804 221.123 283.613C220.145 285.747 219.792 288.243 218.541 290.189C218.198 290.722 218.226 291.24 218.099 291.811C217.987 292.314 217.59 292.761 217.59 293.28C217.59 294.108 218.669 294.8 219.184 295.315C219.501 295.632 220.096 295.821 220.317 296.218C220.527 296.596 220.838 296.841 221.219 297.043C221.443 297.161 222.723 298.521 222.775 297.6C222.864 295.995 222.775 294.359 222.775 292.752C222.775 288.977 222.947 285.226 222.947 281.443C222.947 280.83 222.361 279.717 222.093 280.924C221.52 283.503 220.886 286.06 220.183 288.614C219.816 289.945 219.321 291.386 218.838 292.685C218.544 293.477 218.2 294.164 217.763 294.873C217.268 295.678 216.808 296.43 216.381 297.178C215.667 298.426 216.104 296.346 216.64 296.227C217.6 296.014 217.779 296.917 218.454 297.254" stroke="#A905A2" stroke-width="5.18408" stroke-linecap="round" stroke-linejoin="round"/>
</svg>
